# xmcd CD database file
#
# Track frame offsets:
#	150
#	21822
#	42144
#	53633
#	73504
#	92288
#	110720
#	125341
#	149443
#	172657
#	198629
#	211430
#
# Disc length: 3055 seconds
#
# Revision: 0
# Processed by: cddbd v1.4PL0 Copyright (c) Steve Scherf et al.
# Submitted via: CDex 1.50beta10
#
DISCID=a20bed0c
DTITLE=Pachora - Astereotypical
DYEAR=2003
DGENRE=Jazz
TTITLE0=ROMANICS
TTITLE1=BUSHKA LOUNGE
TTITLE2=KLINK
TTITLE3=SNAP
TTITLE4=PUSH
TTITLE5=HOWL
TTITLE6=DRIFTING
TTITLE7=LITTLE THEATER
TTITLE8=NYLA
TTITLE9=RIDER
TTITLE10=SILENCIO
TTITLE11=MEXAHATA
EXTD=YEAR: 2003
EXTT0=
EXTT1=
EXTT2=
EXTT3=
EXTT4=
EXTT5=
EXTT6=
EXTT7=
EXTT8=
EXTT9=
EXTT10=
EXTT11=
PLAYORDER=
